# xmcd
# Track frame offsets:
# 150
# 10825
# 25897
# 39487
# 58545
# 70172
# 81930
# 98920
# 111435
# 124965
# 140055
# 155275
#
# Disc length: 2238 seconds
# Revision: 0
# Processed by: cddbd v1.4PL0 Copyright (c) Steve Scherf et al.
# Submitted via: VisiTrax 2.9.5.181 - For more info visit www.synapsa.com
#
DISCID=a108bc0c
DTITLE=Various Artist - America's Country-Great Ladies of Country
DYEAR=1997
DGENRE=Country
TTITLE0=Barbara Mandrell - Sleeping Single In A Double Bed
TTITLE1=Donna Fargo - That Was Yesterday
TTITLE2=Loretta Lynn - Coal Miner's Daughter
TTITLE3=Juice Newton - Angel Of The Morning
TTITLE4=Sammi Smith - Help Me Make It Through The Night
TTITLE5=Crystal Gayle - Don't It Make My Brown Eyes Blue
TTITLE6=Emmylou Harris - Beneath Still Waters
TTITLE7=Tanya Tucker - Strong Enough To Bend
TTITLE8=Dolly Parton - Here You Come Again
TTITLE9=Sylvia - Nobody
TTITLE10=Jessi Colter - I'm Not Lisa
TTITLE11=Patsy Cline - I Fall To Pieces
EXTD=
EXTT0=
EXTT1=
EXTT2=
EXTT3=
EXTT4=
EXTT5=
EXTT6=
EXTT7=
EXTT8=
EXTT9=
EXTT10=
EXTT11=
PLAYORDER=
